<?xml version="1.0" encoding="utf-8"?>
<svg xmlns="http://www.w3.org/2000/svg" xmlns:xlink="http://www.w3.org/1999/xlink" x="0px" y="0px" viewBox="0 0 1705.3 364.2"
	 style="enable-background:new 0 0 1705.3 364.2;" xml:space="preserve">
<style type="text/css">
	.st0{fill:#093042;}
	.st1{fill:#3DDB85;}
</style>
<path class="st0" d="M197,147.9v18c-10.3-13.3-26.3-20.9-43.1-20.7c-36.9,0-64.9,31.5-64.9,70c0,38.5,28,70,64.9,70
	c16.8,0.2,32.7-7.5,43.1-20.7v8.5c0,5.2,4.3,9.5,9.5,9.5h20.1V147.9H197z M159.3,258.3c-24,0-40.1-18.9-40.1-43.1
	c0-24.2,16.2-43.1,40.1-43.1c24,0,40.1,18.8,40.1,43.1C199.4,239.4,183.2,258.3,159.3,258.3z"/>
<path class="st0" d="M260.2,147.9h29.6v18.3c9-13.8,24.5-21.7,40.9-21c31.2,0,51.4,22.1,51.4,56.2v81H362c-5.2,0-9.5-4.3-9.5-9.5
	c0,0,0,0,0,0v-66.7c0-21.3-10.8-34.2-28-34.2c-19.6,0-34.7,15.3-34.7,44.1v66.2h-20.1c-5.2,0-9.5-4.3-9.5-9.5L260.2,147.9z"/>
<path class="st0" d="M513.5,80.6V166c-10.3-13.3-26.3-20.9-43.1-20.7c-36.9,0-64.9,31.5-64.9,70c0,38.5,28,70,64.9,70
	c16.8,0.2,32.7-7.5,43.1-20.7v8.5c0,5.2,4.3,9.5,9.5,9.5h20.1V80.6H513.5z M475.8,258.3c-23.9,0-40.1-18.9-40.1-43.1
	c0-24.2,16.2-43.1,40.1-43.1c23.9,0,40.1,18.8,40.1,43.1C515.9,239.4,499.7,258.3,475.8,258.3z"/>
<path class="st0" d="M576.7,147.9h29.6v24c5.3-15.1,19.5-25.2,35.5-25.3c3.9,0,7.8,0.3,11.6,1.1v30.4c-4.8-1.6-9.8-2.4-14.8-2.4
	c-17,0-32.3,14.3-32.3,41.2v65.7h-20.1c-5.2,0-9.5-4.3-9.5-9.5c0,0,0,0,0,0L576.7,147.9z"/>
<path class="st0" d="M734.3,145.2c-38.6-0.3-70.2,30.8-70.5,69.4c-0.3,38.6,30.8,70.2,69.4,70.5c0.5,0,1.1,0,1.6,0
	c38.4-0.3,69.2-31.6,68.9-70C803.7,176.8,772.7,145.5,734.3,145.2z M733.2,257.7c-24,0-40.6-18.6-40.6-42.5
	c0-24,16.7-42.5,40.6-42.5c23.7,0,40.4,18.6,40.4,42.5C773.6,239.2,756.9,257.7,733.2,257.7z"/>
<path class="st0" d="M827.7,147.9h29.6v134.6h-20.1c-5.2,0-9.5-4.3-9.5-9.5V147.9z M842.5,118.6c-10.9,0.1-19.8-8.7-19.9-19.7
	s8.7-19.8,19.7-19.9c0.1,0,0.2,0,0.3,0c10.9,0.1,19.7,9,19.7,19.9C862.1,109.8,853.4,118.5,842.5,118.6"/>
<path class="st0" d="M989.6,80.6V166c-10.3-13.3-26.3-20.9-43.1-20.7h0c-36.9,0-64.9,31.5-64.9,70c0,38.5,28,70,64.9,70
	c16.8,0.2,32.7-7.5,43.1-20.7v8.5c0,5.2,4.3,9.5,9.5,9.5h20.1V80.6H989.6z M951.9,258.3c-23.9,0-40.1-18.9-40.1-43.1
	c0-24.2,16.2-43.1,40.1-43.1c24,0,40.1,18.8,40.1,43.1C992,239.4,975.9,258.3,951.9,258.3z"/>
<path class="st0" d="M1638.2,0L67.1,0C30,0.1,0,30.2,0,67.2v229.9c0,37,30,67.1,67.1,67.1h1568.8c1.9,0,3.8-0.1,5.7-0.2
	c35.7-1.8,63.8-31.2,63.8-67V67.1C1705.3,30,1675.3,0,1638.2,0z M1085,340.8H67.1c-24.1,0-43.7-19.6-43.7-43.7V67.2
	c0-24.1,19.6-43.7,43.7-43.7H1085V340.8z"/>
<path class="st1" d="M1237.1,140.6c-38.6-0.3-70.2,30.8-70.5,69.4c-0.3,38.6,30.8,70.2,69.4,70.5c0.4,0,0.8,0,1.3,0
	c38.4-0.2,69.5-31.5,69.3-70C1306.5,172.2,1275.5,140.9,1237.1,140.6z M1276.4,210.6c0,23.7-17,42.5-40.4,42.5
	c-24,0-40.6-18.8-40.6-42.5c0-23.7,16.7-42.5,40.6-42.5C1259.4,168.1,1276.4,186.9,1276.4,210.6L1276.4,210.6z"/>
<path class="st1" d="M1458.3,277.9h-20.1c-5.2,0-9.5-4.2-9.5-9.5c0,0,0,0,0,0v-66.7c0-21.3-10.8-34.2-28-34.2
	c-20.5,0-34.7,16.1-34.7,44.1v66.2h-20.1c-5.2,0-9.5-4.2-9.5-9.5c0,0,0,0,0,0V143.3h29.6v18.3c9-13.7,24.5-21.7,40.9-21
	c31.2,0,51.4,22.1,51.4,56.3V277.9z"/>
<path class="st1" d="M1623.6,211.9c0-42-28.3-71.3-67.6-71.3c-40.9,0-69.2,30.1-69.2,70c0,40.1,29.3,70,68.9,70
	c15.1,0.4,29.9-4,42.3-12.6c11.4-7.7,19.7-19.1,23.7-32.3h-31c-6.2,12.6-18.6,18.8-33.9,18.8c-10.6,0.4-20.9-3.4-28.8-10.5
	c-7.2-6.8-11.5-16.2-11.8-26.1h107.1L1623.6,211.9z M1517.3,196.9c2.8-18.6,19.1-32.2,37.9-31.5c17.5,0,32,10.8,36.3,31.5H1517.3z"
	/>
</svg>
